<svg width="7" height="11" viewBox="0 0 7 11" fill="none" xmlns="http://www.w3.org/2000/svg">
<path d="M5.96346 5.41117L1.56146 1.00917C1.49782 0.949455 1.41856 0.908978 1.33287 0.892424C1.24718 0.87587 1.15855 0.883915 1.07724 0.91563C0.997125 0.949306 0.928769 1.00594 0.880788 1.0784C0.832806 1.15087 0.807347 1.23591 0.807619 1.32281V10.1268C0.807347 10.2137 0.832806 10.2988 0.880788 10.3712C0.928769 10.4437 0.997125 10.5003 1.07724 10.534C1.13154 10.5556 1.1894 10.5668 1.24782 10.567C1.36471 10.5665 1.47696 10.5212 1.56146 10.4405L5.96346 6.03846C6.04612 5.955 6.0925 5.84228 6.0925 5.72481C6.0925 5.60735 6.04612 5.49463 5.96346 5.41117Z" fill="black"/>
</svg>
